<?xml version="1.0" encoding="utf-8"?>
<!-- Generator: Adobe Illustrator 17.1.0, SVG Export Plug-In . SVG Version: 6.00 Build 0)  -->
<!DOCTYPE svg PUBLIC "-//W3C//DTD SVG 1.1//EN" "http://www.w3.org/Graphics/SVG/1.1/DTD/svg11.dtd">
<svg version="1.1" id="Layer_1" xmlns="http://www.w3.org/2000/svg" xmlns:xlink="http://www.w3.org/1999/xlink" x="0px" y="0px"
	 viewBox="0 0 28 24" enable-background="new 0 0 28 24" xml:space="preserve">
<path fill="#F1F0D8" d="M16,0C9.373,0,4,5.373,4,12c0,3.168,1.237,6.041,3.242,8.185L0,24h16c6.627,0,12-5.373,12-12
	C28,5.373,22.627,0,16,0z"/>
<path fill="#EE4723" d="M16,17.251c-1,0-5.5-3.501-5.5-6.25c0-2.5,1.5-3,2.75-3c1.267,0,1.979,0.793,2.36,1.486
	c0.295,0.537,0.49,0.515,0.802-0.037C16.796,8.765,17.505,8,18.749,8C20,8,21.5,8.5,21.5,11C21.5,13.75,17,17.251,16,17.251z"/>
</svg>
